<?xml version="1.0" standalone="no"?>
<!DOCTYPE svg PUBLIC "-//W3C//DTD SVG 20010904//EN"
 "http://www.w3.org/TR/2001/REC-SVG-20010904/DTD/svg10.dtd">
<svg version="1.0" xmlns="http://www.w3.org/2000/svg"
 width="269.000000pt" height="129.000000pt" viewBox="0 0 269.000000 129.000000"
 preserveAspectRatio="xMidYMid meet">
<metadata>
Created by potrace 1.16, written by Peter Selinger 2001-2019
</metadata>
<g transform="translate(0.000000,129.000000) scale(0.100000,-0.100000)"
fill="#000000" stroke="none">
<path d="M1015 1210 c-4 -6 -5 -13 -2 -16 2 -3 92 -29 198 -59 107 -30 354
-99 549 -154 195 -55 356 -98 359 -96 2 2 1 10 -2 18 -5 14 -19 18 -667 198
-217 61 -402 112 -412 115 -9 3 -19 0 -23 -6z"/>
<path d="M825 1198 c-2 -7 -5 -22 -7 -32 -3 -20 -52 -40 -76 -31 -7 2 -17 16
-22 30 -11 29 -34 32 -87 10 -33 -14 -35 -17 -30 -50 5 -30 2 -37 -24 -56
l-31 -22 -28 22 c-37 27 -42 26 -79 -5 -34 -28 -39 -55 -16 -74 20 -17 19 -30
-8 -63 -20 -25 -25 -27 -50 -18 -35 14 -45 8 -63 -35 -20 -47 -18 -63 11 -76
18 -8 25 -19 25 -39 0 -44 -10 -59 -40 -59 -38 0 -52 -21 -48 -72 3 -41 5 -44
40 -52 33 -8 39 -14 44 -44 6 -30 3 -38 -20 -54 -31 -23 -32 -35 -9 -83 17
-35 19 -36 58 -31 35 5 42 2 59 -21 19 -25 19 -27 1 -60 l-18 -34 33 -34 c40
-41 46 -42 77 -13 22 21 23 21 57 3 31 -17 33 -21 29 -56 -5 -35 -3 -40 21
-49 66 -25 75 -24 93 9 15 26 24 31 55 31 34 0 38 -3 46 -32 8 -32 10 -33 63
-33 l54 0 3 37 c3 32 8 38 38 48 33 11 38 10 63 -14 15 -14 30 -26 34 -26 4 0
25 11 47 25 l40 25 -14 34 c-14 33 -13 35 14 61 l28 27 32 -18 32 -19 29 35
c34 40 36 60 9 85 -39 36 -11 98 43 93 25 -2 34 2 44 22 22 42 13 83 -23 99
-28 12 -32 19 -31 49 1 29 6 37 34 48 27 12 33 20 33 43 0 17 -4 41 -10 55 -8
22 -16 26 -49 26 -35 0 -40 3 -50 32 -10 27 -8 34 10 54 25 26 21 55 -12 93
-19 23 -23 24 -54 12 -36 -13 -60 -6 -84 23 -10 12 -9 21 3 45 15 29 15 30
-11 51 -45 35 -73 37 -98 6 -22 -27 -23 -27 -58 -12 -32 13 -37 19 -37 49 0
27 -5 36 -22 41 -39 10 -88 7 -93 -6z m72 -26 c6 -4 13 -22 15 -40 3 -31 8
-35 58 -52 l55 -19 25 30 c24 28 26 29 48 14 17 -13 20 -20 12 -35 -18 -33
-11 -54 30 -87 39 -34 64 -41 75 -23 10 16 37 12 51 -7 11 -15 9 -22 -14 -46
l-26 -27 27 -56 c26 -53 30 -56 57 -50 23 4 32 1 40 -15 14 -25 1 -44 -35 -53
-23 -6 -25 -11 -25 -67 0 -59 0 -60 35 -75 36 -15 39 -21 29 -48 -4 -11 -19
-16 -43 -16 -36 0 -38 -2 -61 -57 l-23 -56 21 -18 c25 -20 28 -42 7 -59 -11
-9 -20 -8 -43 5 -29 17 -29 17 -72 -23 -43 -39 -45 -47 -25 -94 5 -13 0 -21
-18 -29 -23 -10 -28 -9 -49 15 l-23 27 -55 -18 c-53 -17 -55 -20 -58 -55 -3
-34 -6 -38 -31 -38 -22 0 -29 6 -36 33 -9 28 -15 33 -57 41 -58 10 -75 4 -88
-29 -9 -24 -34 -32 -55 -17 -6 4 -10 24 -10 45 0 35 -4 40 -48 64 l-47 26 -23
-21 c-28 -26 -40 -27 -57 -7 -11 13 -10 22 5 48 l17 33 -33 47 c-34 48 -47 54
-79 37 -15 -8 -22 -5 -35 12 -15 22 -14 24 16 49 l31 25 -11 56 c-11 53 -14
57 -47 65 -19 4 -35 11 -35 16 1 4 1 16 1 27 0 16 7 20 30 20 34 0 45 16 54
82 7 45 6 48 -23 63 -28 14 -29 18 -19 40 13 28 16 29 52 16 22 -9 28 -5 60
34 40 49 43 61 20 86 -35 39 12 75 51 39 23 -22 24 -22 52 -3 15 10 37 24 48
30 14 7 20 21 21 48 0 31 5 40 24 47 12 5 24 7 25 6 1 -2 9 -16 18 -33 14 -29
17 -30 72 -27 31 2 58 9 60 15 25 70 33 78 62 59z"/>
<path d="M703 1046 c-104 -34 -209 -124 -256 -219 -126 -259 30 -561 318 -610
176 -30 364 73 442 243 101 219 8 465 -212 566 -48 22 -77 28 -154 31 -63 2
-110 -2 -138 -11z m270 -46 c37 -14 79 -41 117 -77 176 -162 168 -439 -17
-589 -72 -59 -145 -84 -243 -84 -136 0 -241 51 -316 152 -57 78 -79 145 -78
238 3 277 274 459 537 360z"/>
<path d="M1185 1100 c-4 -6 -4 -14 -1 -17 5 -5 278 -83 691 -198 87 -24 161
-42 163 -40 17 17 -28 37 -174 77 -335 93 -638 178 -655 183 -9 3 -20 1 -24
-5z"/>
<path d="M225 936 c-97 -153 -109 -351 -30 -524 22 -47 48 -73 61 -60 2 3 -11
38 -31 79 -77 163 -66 338 30 490 32 51 36 69 14 69 -5 0 -25 -24 -44 -54z"/>
<path d="M2242 969 c-13 -5 -26 -18 -29 -29 -3 -10 -16 -26 -29 -35 -13 -8
-24 -24 -24 -35 0 -15 -7 -20 -29 -20 -55 0 -61 -23 -61 -222 0 -147 3 -179
16 -192 13 -14 53 -16 278 -16 199 0 266 3 274 13 5 6 13 92 17 189 7 156 6
180 -9 203 -12 17 -25 25 -46 25 -23 0 -33 6 -40 24 -5 13 -16 28 -25 34 -9 5
-22 19 -28 32 -7 13 -23 27 -37 31 -37 10 -201 9 -228 -2z m215 -30 l28 -10
-27 -21 c-16 -11 -28 -28 -28 -39 0 -17 -8 -19 -70 -19 -62 0 -70 2 -70 19 0
11 -12 28 -27 39 l-28 21 25 10 c34 13 162 14 197 0z m163 -138 c11 -21 14
-308 4 -335 -5 -14 -38 -16 -259 -16 -221 0 -254 2 -259 16 -12 31 -7 329 6
342 9 9 79 12 255 12 229 0 243 -1 253 -19z"/>
<path d="M1598 313 c-284 -85 -418 -130 -418 -139 0 -23 -39 -33 435 110 154
46 313 94 353 105 47 14 72 27 72 36 0 8 -6 15 -12 14 -7 0 -201 -57 -430
-126z"/>
<path d="M1538 233 c-351 -104 -528 -161 -528 -170 0 -7 6 -13 14 -13 8 0 126
33 263 74 136 41 367 109 513 151 146 43 273 82 283 87 18 9 14 28 -6 27 -7 0
-249 -70 -539 -156z"/>
</g>
</svg>
